<svg width="21" height="24" viewBox="0 0 21 24" fill="none" xmlns="http://www.w3.org/2000/svg">
<circle cx="10.5" cy="13.5" r="9" fill="#055ED2" stroke="#055ED2" stroke-width="3"/>
<path d="M12.6816 15.8823C12.7715 15.8352 12.8614 15.7882 12.941 15.744C12.9825 15.7234 13.0205 15.6999 13.0586 15.6793C13.069 15.6734 13.0759 15.6734 13.0863 15.6587L13.1139 15.6087C13.1312 15.5763 13.152 15.544 13.1693 15.5116C13.3111 15.2615 13.4218 15.0555 13.4979 14.9055C13.3664 14.9437 13.2004 15.3615 13.0551 15.3115C13.1762 14.929 13.3111 14.9231 13.3388 14.7025C13.4287 14.7701 13.529 14.623 13.6362 14.4641C13.7434 14.3053 13.8576 14.1317 13.9959 14.1228L13.9613 13.9257L14.0962 13.8463C14.4248 13.1431 14.449 13.0666 14.4871 13.0107C14.5217 12.9577 14.5597 12.9401 14.9021 12.3751C15.0855 12.0368 15.1823 11.772 15.2619 11.5542L15.2757 11.5131V11.4925C15.2757 11.4925 15.2861 11.463 15.2895 11.4513C15.2964 11.4248 15.3034 11.3983 15.3137 11.3718C15.3345 11.3218 15.3587 11.2777 15.4037 11.2365C15.3864 11.263 15.2722 11.3071 15.293 11.2071C15.4037 11.2365 15.3518 10.9423 15.4798 10.9452C15.5143 10.854 15.6873 10.5833 15.4936 10.6186C15.5904 10.601 15.7634 10.3656 15.7392 10.5392C15.791 10.4568 15.8602 10.3862 15.8602 10.3126L15.7599 10.4038C15.9017 10.1125 16.0989 10.0066 16.0747 9.7683L15.9571 9.84774C16.0435 9.67709 16.1162 9.52998 16.2926 9.52115L16.2372 9.71239C16.3929 9.43288 16.4828 9.25929 16.5416 8.99448L16.4897 9.07687C16.5209 8.72085 17.2956 7.12321 17.2783 6.77602L17.0985 6.85546L17.1434 6.58183C17.1261 6.60831 17.4305 6.84075 17.3821 6.84958C17.6623 6.34057 19.0804 3.68665 19.4228 3.25414C19.5923 3.09231 19.6165 3.29239 19.6303 3.30121C19.7202 3.05701 19.5715 3.1541 19.6926 2.9658C19.741 2.92166 19.7721 3.01287 19.7687 3.04818C19.8033 2.95697 19.8863 2.89518 19.8413 2.86576C19.741 2.95697 19.6303 2.85399 19.5196 2.86576L19.6753 2.62155L19.7548 2.66863C19.7894 2.61273 19.6026 2.43031 19.7894 2.20375C20.0627 1.80655 20.2909 1.34461 20.5504 0.935638C20.5988 0.962119 20.578 1.06216 20.5573 1.16219C20.5919 1.10629 20.6265 1.01802 20.6956 0.979772C20.5469 1.04156 20.7371 0.779698 20.6541 0.841486C20.6264 0.526664 20.8893 0.261861 21 0H16.5278C16.4033 0.15594 16.3617 0.30011 16.2199 0.408974L16.2303 0.600221C15.7807 1.34461 14.2138 4.36631 13.7953 5.12836V5.09305C13.4909 5.67856 12.9963 6.55829 12.5121 7.4498C12.27 7.89408 12.0279 8.34424 11.8134 8.75616C11.7062 8.96212 11.6059 9.16219 11.5125 9.34756C11.4675 9.44171 11.426 9.52997 11.3845 9.6153C11.3638 9.65943 11.3465 9.70063 11.3257 9.74182C11.3154 9.76241 11.3084 9.78301 11.2981 9.8036L11.2842 9.83303L11.2773 9.8448C11.1666 9.83891 11.1666 9.88599 11.1251 9.89776C11.1666 9.90953 11.222 9.9566 11.2081 9.97131C11.1736 10.0213 11.1839 10.039 11.1978 10.0596C11.2151 10.0802 11.2358 10.1067 11.2081 10.1949C11.1943 10.3156 11.0629 10.5362 10.9453 10.6922C10.9141 10.7304 10.8865 10.7657 10.8623 10.7922L10.8415 10.8128C10.8415 10.8128 10.8346 10.8334 10.8173 10.8216C10.8 10.8216 10.8 10.7981 10.7931 10.7863C10.7896 10.7716 10.7827 10.7569 10.7792 10.7422C10.7412 10.6245 10.717 10.5274 10.7066 10.4627C10.6686 10.5509 10.6409 10.5186 10.6167 10.4803C10.5925 10.4391 10.5752 10.395 10.5302 10.4127L10.551 10.3773C10.5164 10.3715 10.4507 10.2008 10.3953 10.0537C10.3815 10.0184 10.3677 9.98014 10.3573 9.94777C10.3504 9.93012 10.3434 9.91541 10.34 9.89776L10.3296 9.87422V9.86245L10.3054 9.8242C10.1809 9.57705 10.0737 9.37992 10.0079 9.28283L10.0149 9.34461C9.74161 9.02685 9.92146 9.01508 9.82462 8.72085C9.68627 8.81795 9.43723 8.5502 9.3646 8.44134L9.40264 8.43251C9.28505 8.27069 8.94262 7.92939 8.76968 7.64987L8.86307 7.62928C8.64517 7.42626 8.44802 6.96138 8.34771 6.79367C8.17823 6.38764 8.01221 5.72563 7.62136 5.24605L7.69054 4.81353L8.21628 6.44409C8.21628 6.44409 4.49461 6.25524 4.22482 7.18794L4.26633 6.92313L4.08993 6.44649C4.13489 6.62597 4.27325 6.66422 4.17986 6.68775L4.07263 6.45826C4.13489 6.63185 4.51418 7.69401 4.43117 7.64987C4.45884 7.72049 4.22483 7.18794 4 6.69952C4.05188 6.72012 4.02421 6.66127 4.02767 6.62891C4.10376 6.70541 4.25249 6.79956 4.26633 6.92313C4.34588 7.09379 4.13143 6.98786 4.22482 7.18794C4.70559 8.25303 5.13449 9.30048 5.70519 10.342C5.68098 10.3803 5.66714 10.3509 5.63601 10.3273C5.84008 10.6304 5.97497 10.9158 6.16521 11.1894C6.16521 11.2836 6.12716 11.3277 6.10295 11.363C6.10987 11.3542 6.12716 11.3718 6.15483 11.4101C6.15829 11.416 6.16175 11.4189 6.16521 11.4248C6.16867 11.4307 6.17213 11.4336 6.1825 11.4483C6.19634 11.4719 6.21363 11.4983 6.23092 11.5278C6.26551 11.5837 6.3001 11.6513 6.34161 11.722C6.50417 12.0103 6.71862 12.4016 6.93306 12.8018C7.36195 13.5991 7.78738 14.4171 7.7943 14.4553L7.91536 14.3317C8.23011 14.9231 7.89461 14.7025 8.21628 15.2232C8.27508 15.2115 8.33733 15.2644 8.39267 15.3527L8.41343 15.388C8.41343 15.388 8.42726 15.3998 8.43418 15.4057C8.44802 15.4145 8.46531 15.4233 8.47914 15.4351C8.51027 15.4557 8.53794 15.4822 8.56561 15.5057C8.67976 15.6087 8.7939 15.7234 8.86999 15.6852C8.85961 15.7058 9.00834 15.8058 8.97029 15.8823C9.06368 15.7705 9.13632 15.947 9.24354 15.9676C9.2885 15.95 9.2297 15.9117 9.21933 15.8529L9.44761 15.9441C9.46144 15.9647 9.47182 15.9823 9.47874 16H12.436C12.5156 15.9588 12.5917 15.9206 12.6643 15.8823H12.6816Z" fill="#00F46A"/>
</svg>
